<svg xmlns="http://www.w3.org/2000/svg" width="71.379" height="84.861" viewBox="0 0 71.379 84.861">
  <g id="files-and-folders" transform="translate(-40.671)">
    <path id="Caminho_185" data-name="Caminho 185" d="M110.807,46.16a1.243,1.243,0,0,0-1.243,1.243V69.987a4.759,4.759,0,0,1-4.754,4.754H55.545a4.759,4.759,0,0,1-4.754-4.754V7.24a4.759,4.759,0,0,1,4.754-4.754h7.848a1.243,1.243,0,1,0,0-2.486H55.545a7.248,7.248,0,0,0-7.24,7.24v.395h-.395a7.248,7.248,0,0,0-7.24,7.24V77.622a7.248,7.248,0,0,0,7.24,7.24H97.177a7.248,7.248,0,0,0,7.24-7.24v-.395h.394a7.248,7.248,0,0,0,7.24-7.24V47.4A1.243,1.243,0,0,0,110.807,46.16ZM101.93,77.622a4.759,4.759,0,0,1-4.753,4.753H47.911a4.759,4.759,0,0,1-4.753-4.753V14.874a4.759,4.759,0,0,1,4.753-4.753h.395V69.987a7.248,7.248,0,0,0,7.24,7.24H101.93Z" transform="translate(0 0)" fill="#858585"/>
    <path id="Caminho_186" data-name="Caminho 186" d="M245.192,29.932a18.346,18.346,0,0,0-5.409-13.058L228.317,5.409A18.346,18.346,0,0,0,215.259,0H201.507a1.243,1.243,0,0,0,0,2.486h11.215a8.438,8.438,0,0,1,8.428,8.428V16.8a7.248,7.248,0,0,0,7.24,7.24h5.886a8.438,8.438,0,0,1,8.428,8.428v9.961a1.243,1.243,0,1,0,2.486,0v-12.5h0Zm-10.915-8.377h-5.886a4.759,4.759,0,0,1-4.754-4.754V10.915a10.876,10.876,0,0,0-3-7.5,15.925,15.925,0,0,1,5.918,3.756l11.466,11.466a15.923,15.923,0,0,1,3.756,5.918,10.877,10.877,0,0,0-7.5-3Z" transform="translate(-133.141)" fill="#858585"/>
    <path id="Caminho_187" data-name="Caminho 187" d="M211.533,237.452h9.2a2.616,2.616,0,0,0,2.613-2.612V218.55h2.669a2.613,2.613,0,0,0,1.847-4.46l-8.741-8.741a4.226,4.226,0,0,0-5.977,0L204.4,214.09a2.613,2.613,0,0,0,1.847,4.46h2.669v16.29a2.615,2.615,0,0,0,2.612,2.612Zm-5.281-21.389a.126.126,0,0,1-.089-.216l8.741-8.741a1.74,1.74,0,0,1,2.461,0l8.741,8.741a.126.126,0,0,1-.089.216H222.1a1.243,1.243,0,0,0-1.243,1.243V234.84a.127.127,0,0,1-.126.126h-9.2a.126.126,0,0,1-.126-.126V217.307a1.243,1.243,0,0,0-1.243-1.243Z" transform="translate(-135.956 -170.281)" fill="#858585"/>
    <path id="Caminho_188" data-name="Caminho 188" d="M194.957,155.606H216.3a3.916,3.916,0,0,0,3.912-3.912v-.073a3.916,3.916,0,0,0-3.912-3.912H194.957a3.916,3.916,0,0,0-3.912,3.912v.073A3.916,3.916,0,0,0,194.957,155.606Zm-1.426-3.985a1.427,1.427,0,0,1,1.426-1.426H216.3a1.427,1.427,0,0,1,1.426,1.426v.073a1.427,1.427,0,0,1-1.426,1.426H194.957a1.427,1.427,0,0,1-1.426-1.426Z" transform="translate(-125.45 -123.227)" fill="#858585"/>
  </g>
</svg>
