<svg xmlns="http://www.w3.org/2000/svg" width="25.28" height="23.279" viewBox="0 0 25.28 23.279">
  <g id="Grupo_138" data-name="Grupo 138" transform="translate(-614.36 -677.101)">
    <g id="heart" transform="translate(614.36 656.842)">
      <g id="Grupo_134" data-name="Grupo 134" transform="translate(0 20.259)">
        <path id="Caminho_190" data-name="Caminho 190" d="M23.043,22.526a7.833,7.833,0,0,0-10.379-.571,7.832,7.832,0,0,0-4.875-1.7A7.789,7.789,0,0,0,2.267,33.542L12,43.272a.909.909,0,0,0,1.285,0l9.738-9.708a7.9,7.9,0,0,0,.024-11.039Zm-1.316,9.759-9.087,9.059L3.553,32.256A5.956,5.956,0,0,1,7.79,22.078a6.045,6.045,0,0,1,4.245,1.741.909.909,0,0,0,1.279-.007A6.007,6.007,0,0,1,21.75,23.8a6.08,6.08,0,0,1-.022,8.48Z" transform="translate(0 -20.259)" fill="#f5436f"/>
      </g>
    </g>
    <path id="Caminho_191" data-name="Caminho 191" d="M621.322,677.909l5.2,1.732,4.8-1.732,3.664.933,2.465,1.865,1.2,4-.666,3.8-1.8,2.265-3.864,3.6-4.8,4.929-1-.266-2.4-2.4-4.063-4.263-2.8-2.6-2-2.931.533-4.263,1.8-2.931Z" fill="#f5436f"/>
  </g>
</svg>
