<svg xmlns="http://www.w3.org/2000/svg" width="409.415" height="431.973" viewBox="0 0 409.415 431.973">
  <g id="Grupo_114" data-name="Grupo 114" transform="translate(-16.577 -7.075)">
    <path id="Caminho_100" data-name="Caminho 100" d="M48.376,92.212,190.059,10.465a25.391,25.391,0,0,1,25.35,0L357.09,92.212a25.006,25.006,0,0,1,12.577,21.812v202.4A25.42,25.42,0,0,1,357.09,338.24L215.408,419.987a25.391,25.391,0,0,1-25.35,0L48.377,338.24A25.006,25.006,0,0,1,35.8,316.427v-202.4A25.006,25.006,0,0,1,48.376,92.212Z" transform="translate(18.551)" fill="#fe9b23"/>
    <g id="Grupo_91" data-name="Grupo 91" transform="translate(16.577 122.742)">
      <g id="Grupo_78" data-name="Grupo 78" transform="translate(219.249)">
        <g id="Grupo_75" data-name="Grupo 75">
          <g id="Grupo_72" data-name="Grupo 72">
            <g id="Grupo_71" data-name="Grupo 71">
              <g id="Grupo_70" data-name="Grupo 70">
                <g id="Grupo_69" data-name="Grupo 69">
                  <g id="Grupo_67" data-name="Grupo 67" transform="translate(0 2.56)">
                    <path id="Caminho_101" data-name="Caminho 101" d="M237.579,281.006l29.083-51.878c4.913-8.843,7.664-24.367,5.9-34.389l-.59-3.537v-.786c-1.376-10.022,4.127-23.384,7.86-32.62l25.153-61.31c3.93-9.432,5.109-18.275,2.948-19.454s-5.5-3.144-7.467-4.127c-1.769-.983-5.109-2.948-7.467-4.127-2.162-1.179-9.039,4.323-15.131,12.576l-39.3,53.254c-5.7,7.664-13.952,18.865-22.795,23.188-.59.2-.983.59-1.572.786l-3.341,1.376c-9.432,3.734-21.419,14.149-26.332,22.991L129.5,281.006H237.579Z" transform="translate(-126.847 -65.907)"/>
                    <path id="Caminho_102" data-name="Caminho 102" d="M238.882,285.09H130.8a3,3,0,0,1-2.358-1.376,2.915,2.915,0,0,1,0-2.555L183.467,183.1c5.306-9.432,17.686-20.24,27.708-24.17l3.341-1.376c.393-.2.983-.393,1.376-.59,8.253-4.127,16.507-15.131,21.812-22.4L277,81.115c2.162-2.751,12.773-16.7,18.472-13.363l14.935,8.45c5.9,3.341-.393,19.651-1.769,22.795l-25.153,61.31c-3.537,8.843-8.843,22.009-7.664,31.245v.59l.59,3.537c1.769,10.611-.983,26.922-6.288,36.157l-29.083,51.878A2.417,2.417,0,0,1,238.882,285.09Zm-103.56-5.306H237.31l28.3-50.5c4.716-8.253,7.271-23.384,5.7-32.62l-.59-3.537v-.786c-1.376-10.611,3.93-23.974,8.057-33.8l25.153-61.507c3.537-8.646,4.127-14.738,3.734-16.31l-14.149-7.86c-1.572.393-6.485,4.127-11.987,11.594l-39.3,53.254c-6.092,8.253-14.345,19.454-23.777,23.974-.59.2-1.179.59-1.769.786l-3.341,1.376c-8.843,3.537-20.24,13.559-24.956,21.812Z" transform="translate(-128.15 -67.239)"/>
                  </g>
                  <g id="Grupo_68" data-name="Grupo 68" transform="translate(148.417)">
                    <path id="Caminho_103" data-name="Caminho 103" d="M205.729,76.675a4.926,4.926,0,0,0,1.965,6.878L230.1,96.13a4.926,4.926,0,0,0,6.878-1.965,5.161,5.161,0,0,0,.393-4.127,4.433,4.433,0,0,0,3.341-2.555,4.926,4.926,0,0,0-1.965-6.878l-22.4-12.577a4.926,4.926,0,0,0-6.878,1.965,5.161,5.161,0,0,0-.393,4.127A4.922,4.922,0,0,0,205.729,76.675Z" transform="translate(-202.344 -64.563)"/>
                    <path id="Caminho_104" data-name="Caminho 104" d="M233.788,100.843a8.128,8.128,0,0,1-3.734-.983l-22.4-12.577A7.771,7.771,0,0,1,204.7,76.673h0a6.209,6.209,0,0,1,2.751-2.751,8.945,8.945,0,0,1,.983-3.93,8.148,8.148,0,0,1,4.716-3.734,6.961,6.961,0,0,1,5.9.786l22.4,12.577A7.771,7.771,0,0,1,244.4,90.232a6.208,6.208,0,0,1-2.751,2.751,8.945,8.945,0,0,1-.983,3.93,8.148,8.148,0,0,1-4.716,3.734C235.163,100.647,234.377,100.843,233.788,100.843ZM209.224,79.228a2.518,2.518,0,0,0,.983,3.341l22.4,12.577a2.253,2.253,0,0,0,1.965.2,3.056,3.056,0,0,0,1.572-1.179,2.414,2.414,0,0,0,.2-1.965,2.7,2.7,0,0,1,.2-2.162,3.136,3.136,0,0,1,1.769-1.376,2.106,2.106,0,0,0,1.572-1.179,2.518,2.518,0,0,0-.983-3.341l-22.4-12.576a2.253,2.253,0,0,0-1.965-.2,3.056,3.056,0,0,0-1.572,1.179,2.414,2.414,0,0,0-.2,1.965,2.7,2.7,0,0,1-.2,2.162,3.136,3.136,0,0,1-1.769,1.376,5.154,5.154,0,0,0-1.572,1.179Z" transform="translate(-203.677 -65.936)"/>
                  </g>
                </g>
              </g>
            </g>
          </g>
          <g id="Grupo_73" data-name="Grupo 73" transform="translate(107.392 34.973)">
            <path id="Caminho_105" data-name="Caminho 105" d="M198.445,144.832c8.646,4.913,18.865,4.52,27.511,0a22.051,22.051,0,0,0,.983-2.555l15.721-38.319A26.572,26.572,0,0,0,229.886,88.63a26.991,26.991,0,0,0-19.847-2.751l-24.17,33.013-1.769,2.358C184.886,130.879,189.8,139.919,198.445,144.832Z" transform="translate(-181.545 -82.408)" fill="#fff"/>
            <path id="Caminho_106" data-name="Caminho 106" d="M213.259,152.249a29.887,29.887,0,0,1-14.738-3.734c-9.039-5.109-14.935-14.738-15.721-25.743a3.17,3.17,0,0,1,.59-1.769l1.769-2.358,24.563-33.21a2.7,2.7,0,0,1,1.572-.983A30.4,30.4,0,0,1,246.862,104.5a3.349,3.349,0,0,1,0,1.965l-16.7,40.874a2.642,2.642,0,0,1-1.179,1.376A42.245,42.245,0,0,1,213.259,152.249Zm-25.153-28.887c.983,8.843,5.7,16.507,12.97,20.437,7.271,4.127,16.31,4.127,24.17.393l.786-1.769,15.328-37.336a24.321,24.321,0,0,0-11.2-12.97,25.148,25.148,0,0,0-16.9-2.751Z" transform="translate(-182.8 -83.734)"/>
          </g>
          <path id="Caminho_107" data-name="Caminho 107" d="M206.945,138.177h-1.572a23.065,23.065,0,0,1-7.86-2.555h0a23.186,23.186,0,0,1-6.288-5.306,14.148,14.148,0,0,1-.2-16.9L204.98,94.553a13.668,13.668,0,0,1,17.686-4.127h.2a13.74,13.74,0,0,1,5.7,17.293l-8.843,21.616A13.722,13.722,0,0,1,206.945,138.177Zm-6.681-7.074a18.949,18.949,0,0,0,5.9,1.965A8.594,8.594,0,0,0,215,127.762l8.843-21.616c1.572-3.93.2-8.646-3.341-10.611l1.179-2.358-1.376,2.358A8.637,8.637,0,0,0,209.5,98.09l-13.952,18.865a8.55,8.55,0,0,0,0,10.415,24.669,24.669,0,0,0,4.716,3.734Z" transform="translate(-70.077 -43.925)"/>
          <g id="Grupo_74" data-name="Grupo 74" transform="translate(0.166 123.207)">
            <path id="Caminho_108" data-name="Caminho 108" d="M237.483,221.866l25.743-45.786L181.085,129.9,129.6,221.473l.589.393Z" transform="translate(-126.916 -127.413)" fill="#fff"/>
            <path id="Caminho_109" data-name="Caminho 109" d="M238.8,225.838H131.508a3.643,3.643,0,0,1-1.376-.393l-.59-.393a3.056,3.056,0,0,1-1.179-1.572,2.325,2.325,0,0,1,.2-1.965l51.485-91.573a3.056,3.056,0,0,1,1.572-1.179,2.325,2.325,0,0,1,1.965.2l82.14,46.179a3.056,3.056,0,0,1,1.179,1.572,2.325,2.325,0,0,1-.2,1.965l-25.743,45.786A2.416,2.416,0,0,1,238.8,225.838Zm-103.56-5.306H237.229L260.81,178.48l-77.424-43.625Z" transform="translate(-128.234 -128.634)"/>
          </g>
          <path id="Caminho_110" data-name="Caminho 110" d="M220.007,217.541H143.173a3.17,3.17,0,0,1-1.769-.59,14.082,14.082,0,0,1-2.948-17.293L169.5,144.44a13.816,13.816,0,0,1,8.45-6.681,14.3,14.3,0,0,1,10.611,1.179l46.376,26.136a14.524,14.524,0,0,1,6.681,8.45,14.3,14.3,0,0,1-1.179,10.611l-18.079,32.227A3.063,3.063,0,0,1,220.007,217.541Zm-75.656-5.306h74.083l17.293-30.852a8.41,8.41,0,0,0-3.341-11.594l-46.376-26.136a8.41,8.41,0,0,0-11.594,3.341l-31.245,55.219A8.967,8.967,0,0,0,144.352,212.235Z" transform="translate(-119.887 2.87)"/>
        </g>
        <path id="Caminho_111" data-name="Caminho 111" d="M196.274,278.805l29.083-51.878c4.913-8.843,7.664-24.367,5.9-34.389l-.59-3.537v-.786c-1.376-10.022,4.127-23.384,7.86-32.62l25.153-61.31c3.93-9.432,5.109-18.275,2.948-19.454-1.965-.983-6.288-2.948-8.057-3.93-17.1,25.939-26.136,52.468-38.909,81.354-11.594,26.136-10.415,57.38-22.4,80.175C189.2,248.15,180.75,263.478,172.3,278.609h23.974Z" transform="translate(-85.542 -61.146)" fill="#fe9b23"/>
        <g id="Grupo_76" data-name="Grupo 76" transform="translate(118.247 44.819)">
          <path id="Caminho_112" data-name="Caminho 112" d="M197.56,131.949a18.037,18.037,0,0,1-5.5-4.716,10.925,10.925,0,0,1,0-13.559L206.01,94.809a11.117,11.117,0,0,1,14.345-3.341h0a11.013,11.013,0,0,1,4.52,13.952l-8.843,21.616a11.275,11.275,0,0,1-11.594,7.074A17.575,17.575,0,0,1,197.56,131.949Z" transform="translate(-186.996 -87.428)" fill="#fe9b23"/>
          <path id="Caminho_113" data-name="Caminho 113" d="M206.945,138.177h-1.572a23.065,23.065,0,0,1-7.86-2.555h0a23.186,23.186,0,0,1-6.288-5.306,14.148,14.148,0,0,1-.2-16.9L204.98,94.553a13.668,13.668,0,0,1,17.686-4.127h.2a13.74,13.74,0,0,1,5.7,17.293l-8.843,21.616A13.722,13.722,0,0,1,206.945,138.177Zm-6.681-7.074a18.949,18.949,0,0,0,5.9,1.965A8.594,8.594,0,0,0,215,127.762l8.843-21.616c1.572-3.93.2-8.646-3.341-10.611l1.179-2.358-1.376,2.358A8.637,8.637,0,0,0,209.5,98.09l-13.952,18.865a8.55,8.55,0,0,0,0,10.415,24.669,24.669,0,0,0,4.716,3.734Z" transform="translate(-188.324 -88.744)"/>
        </g>
        <g id="Grupo_77" data-name="Grupo 77" transform="translate(16.826 140.102)">
          <path id="Caminho_114" data-name="Caminho 114" d="M141.971,213.627h76.835L236.884,181.4a11.068,11.068,0,0,0-4.323-15.328l-46.376-26.136a11.068,11.068,0,0,0-15.328,4.323l-31.048,55.219A11.019,11.019,0,0,0,141.971,213.627Z" transform="translate(-135.314 -136.07)" fill="#fe9b23"/>
          <path id="Caminho_115" data-name="Caminho 115" d="M220.007,217.541H143.173a3.17,3.17,0,0,1-1.769-.59,14.082,14.082,0,0,1-2.948-17.293L169.5,144.44a13.816,13.816,0,0,1,8.45-6.681,14.3,14.3,0,0,1,10.611,1.179l46.376,26.136a14.524,14.524,0,0,1,6.681,8.45,14.3,14.3,0,0,1-1.179,10.611l-18.079,32.227A3.063,3.063,0,0,1,220.007,217.541Zm-75.656-5.306h74.083l17.293-30.852a8.41,8.41,0,0,0-3.341-11.594l-46.376-26.136a8.41,8.41,0,0,0-11.594,3.341l-31.245,55.219A8.967,8.967,0,0,0,144.352,212.235Z" transform="translate(-136.712 -137.232)"/>
        </g>
      </g>
      <g id="Grupo_90" data-name="Grupo 90" transform="translate(0 0.132)">
        <g id="Grupo_87" data-name="Grupo 87">
          <g id="Grupo_84" data-name="Grupo 84">
            <g id="Grupo_83" data-name="Grupo 83">
              <g id="Grupo_82" data-name="Grupo 82">
                <g id="Grupo_81" data-name="Grupo 81">
                  <g id="Grupo_79" data-name="Grupo 79" transform="translate(5.426 2.428)">
                    <path id="Caminho_116" data-name="Caminho 116" d="M92.075,280.91,62.992,229.032c-4.913-8.843-7.664-24.367-5.9-34.389l.59-3.537v-.786c1.376-10.022-4.127-23.384-7.86-32.62L24.673,96.586c-3.93-9.432-5.109-18.275-2.948-19.454s5.5-3.144,7.467-4.127c1.769-.983,5.109-2.948,7.467-4.127C38.822,67.7,45.7,73.2,51.791,81.455l39.3,53.254c5.7,7.664,13.952,18.865,22.795,23.188.59.2.983.59,1.572.786l3.341,1.376c9.432,3.734,21.419,14.149,26.332,22.991l55.022,98.057H92.075Z" transform="translate(-18.067 -65.81)"/>
                    <path id="Caminho_117" data-name="Caminho 117" d="M201.426,285.09H93.347a3,3,0,0,1-2.358-1.376L61.905,231.836c-5.306-9.432-8.057-25.546-6.288-36.157l.59-4.127c1.179-9.236-4.127-22.4-7.664-31.048L23.586,99c-1.376-3.144-7.664-19.454-1.769-22.795l14.935-8.45c5.9-3.341,16.507,10.611,18.472,13.363l39.3,53.254c5.5,7.271,13.559,18.275,21.812,22.4.393.2.983.393,1.376.59l3.341,1.376c10.022,3.93,22.4,14.738,27.708,24.17l55.022,98.057a2.915,2.915,0,0,1,0,2.555A2.772,2.772,0,0,1,201.426,285.09ZM94.919,279.784H196.906l-52.861-94.127c-4.716-8.253-16.114-18.275-24.956-21.812l-3.341-1.376c-.59-.2-1.179-.59-1.769-.786-9.432-4.716-17.686-15.721-23.777-23.974L50.9,84.455c-5.5-7.467-10.415-11.2-11.987-11.594l-14.149,7.86c-.393,1.572.2,7.664,3.734,16.31l25.153,61.31c4.127,9.825,9.432,23.188,8.057,34v.786l-.59,3.537c-1.572,9.432.983,24.367,5.7,32.62Z" transform="translate(-19.338 -67.239)"/>
                  </g>
                  <g id="Grupo_80" data-name="Grupo 80">
                    <path id="Caminho_118" data-name="Caminho 118" d="M53.511,76.675a4.926,4.926,0,0,1-1.965,6.878L29.34,96.13a4.926,4.926,0,0,1-6.878-1.965,5.161,5.161,0,0,1-.393-4.127,4.433,4.433,0,0,1-3.341-2.555,4.926,4.926,0,0,1,1.965-6.878L43.1,68.029a4.926,4.926,0,0,1,6.878,1.965,5.161,5.161,0,0,1,.393,4.127A5.031,5.031,0,0,1,53.511,76.675Z" transform="translate(-15.147 -64.695)"/>
                    <path id="Caminho_119" data-name="Caminho 119" d="M28.216,100.779a8.062,8.062,0,0,1-2.162-.2,7.459,7.459,0,0,1-4.716-3.734,8.945,8.945,0,0,1-.983-3.93A6.209,6.209,0,0,1,17.6,90.167a7.771,7.771,0,0,1,2.948-10.611l22.4-12.576a8.746,8.746,0,0,1,5.9-.786,7.459,7.459,0,0,1,4.716,3.734,8.945,8.945,0,0,1,.983,3.93A6.209,6.209,0,0,1,57.3,76.608h0A7.771,7.771,0,0,1,54.351,87.22L31.95,99.8A7.526,7.526,0,0,1,28.216,100.779ZM46.884,71.3a2.793,2.793,0,0,0-1.179.393L23.3,84.075a2.518,2.518,0,0,0-.983,3.341A2.106,2.106,0,0,0,23.893,88.6a2.5,2.5,0,0,1,1.769,1.376,2.7,2.7,0,0,1,.2,2.162,1.842,1.842,0,0,0,.2,1.965,2.441,2.441,0,0,0,1.572,1.179,2.325,2.325,0,0,0,1.965-.2L51.993,82.5a2.518,2.518,0,0,0,.983-3.341A2.106,2.106,0,0,0,51.4,77.984a2.5,2.5,0,0,1-1.769-1.376,2.7,2.7,0,0,1-.2-2.162,1.842,1.842,0,0,0-.2-1.965A2.441,2.441,0,0,0,47.67,71.3Z" transform="translate(-16.577 -66.003)"/>
                  </g>
                </g>
              </g>
            </g>
          </g>
          <g id="Grupo_85" data-name="Grupo 85" transform="translate(18.959 34.681)">
            <path id="Caminho_120" data-name="Caminho 120" d="M71.814,144.832c-8.646,4.913-18.865,4.52-27.511,0a22.04,22.04,0,0,1-.983-2.555L27.6,103.958A26.572,26.572,0,0,1,40.373,88.63,26.991,26.991,0,0,1,60.22,85.879l24.563,33.21,1.769,2.358C85.373,130.879,80.461,139.919,71.814,144.832Z" transform="translate(-24.898 -82.248)" fill="#fff"/>
            <path id="Caminho_121" data-name="Caminho 121" d="M59.582,152.327a33.27,33.27,0,0,1-15.328-3.734,2.078,2.078,0,0,1-1.179-1.376l-.983-2.555L26.372,106.344a3.331,3.331,0,0,1,0-1.965A30.4,30.4,0,0,1,61.94,84.336a4.279,4.279,0,0,1,1.572.983l26.136,35.568a3.17,3.17,0,0,1,.59,1.769c-.786,11-6.681,20.633-15.721,25.742A31.4,31.4,0,0,1,59.582,152.327ZM47.6,144.27c8.057,3.734,16.9,3.734,24.17-.393s11.987-11.594,12.97-20.437l-1.179-1.572L59.582,89.445a25.148,25.148,0,0,0-16.9,2.751,25.828,25.828,0,0,0-11.2,12.97Z" transform="translate(-26.225 -83.652)"/>
          </g>
          <path id="Caminho_122" data-name="Caminho 122" d="M54.859,138.177a13.829,13.829,0,0,1-12.773-8.646l-8.843-21.616a13.74,13.74,0,0,1,5.7-17.293l.2-.2a13.668,13.668,0,0,1,17.686,4.127l13.952,18.865a13.858,13.858,0,0,1-.2,16.9,20.578,20.578,0,0,1-6.288,5.306h0a21.762,21.762,0,0,1-7.86,2.555Zm-14.738-45.2L41.5,95.339a8.358,8.358,0,0,0-3.341,10.611L47,127.566c1.572,3.537,5.109,5.9,8.843,5.306a12.382,12.382,0,0,0,5.9-1.965,17.963,17.963,0,0,0,4.716-3.93,8.55,8.55,0,0,0,0-10.415L52.5,97.7a8.2,8.2,0,0,0-10.808-2.555Z" transform="translate(-1.561 -44.057)"/>
          <g id="Grupo_86" data-name="Grupo 86" transform="translate(51.008 122.878)">
            <path id="Caminho_123" data-name="Caminho 123" d="M69.643,221.866,43.9,176.079,126.04,129.9l51.485,91.573-.59.393Z" transform="translate(-41.216 -127.216)" fill="#fff"/>
            <path id="Caminho_124" data-name="Caminho 124" d="M178.254,225.935H70.961a3,3,0,0,1-2.358-1.376L42.86,178.773a2.325,2.325,0,0,1-.2-1.965,3.056,3.056,0,0,1,1.179-1.572l82.14-46.376a2.325,2.325,0,0,1,1.965-.2,3.056,3.056,0,0,1,1.572,1.179L181,221.415a2.575,2.575,0,0,1-.983,3.537l-.59.393A1.4,1.4,0,0,1,178.254,225.935ZM72.533,220.629H174.52l-48.144-85.677L48.952,178.576Z" transform="translate(-42.534 -128.534)"/>
          </g>
          <path id="Caminho_125" data-name="Caminho 125" d="M149.955,217.68H73.317a3,3,0,0,1-2.358-1.376L52.88,184.077A13.427,13.427,0,0,1,51.7,173.466a14.219,14.219,0,0,1,6.681-8.45l46.376-26.136A13.428,13.428,0,0,1,115.37,137.7a14.219,14.219,0,0,1,8.45,6.681L154.868,199.6a14.082,14.082,0,0,1-2.948,17.293A3.492,3.492,0,0,1,149.955,217.68Zm-75.263-5.306h74.083a8.926,8.926,0,0,0,1.179-10.022l-31.048-55.219a8.836,8.836,0,0,0-5.109-4.127,8.327,8.327,0,0,0-6.485.786L60.741,169.732a8.836,8.836,0,0,0-4.127,5.109,8.327,8.327,0,0,0,.786,6.485Z" transform="translate(16.728 2.599)"/>
        </g>
        <path id="Caminho_126" data-name="Caminho 126" d="M92.075,278.709,62.992,226.831c-4.913-8.843-7.664-24.367-5.9-34.389l.59-3.537v-.786c1.376-10.022-4.127-23.384-7.86-32.62L24.673,94.384c-3.93-9.432-5.109-18.275-2.948-19.454,1.965-.983,6.288-2.948,8.057-3.93,17.1,25.939,26.136,52.468,38.909,81.354,11.594,26.136,10.415,57.38,22.4,80.175,8.057,15.721,16.507,31.048,24.956,46.179Z" transform="translate(-12.641 -61.181)" fill="#fe9b23"/>
        <g id="Grupo_88" data-name="Grupo 88" transform="translate(30.576 44.687)">
          <path id="Caminho_127" data-name="Caminho 127" d="M61.661,131.949a18.037,18.037,0,0,0,5.5-4.716,10.925,10.925,0,0,0,0-13.559L53.211,94.809a11.117,11.117,0,0,0-14.345-3.341h0a11.013,11.013,0,0,0-4.52,13.952l8.843,21.616a11.275,11.275,0,0,0,11.594,7.074A17.575,17.575,0,0,0,61.661,131.949Z" transform="translate(-30.881 -87.428)" fill="#fe9b23"/>
          <path id="Caminho_128" data-name="Caminho 128" d="M54.859,138.177a13.829,13.829,0,0,1-12.773-8.646l-8.843-21.616a13.74,13.74,0,0,1,5.7-17.293l.2-.2a13.668,13.668,0,0,1,17.686,4.127l13.952,18.865a13.858,13.858,0,0,1-.2,16.9,20.578,20.578,0,0,1-6.288,5.306h0a21.762,21.762,0,0,1-7.86,2.555Zm-14.738-45.2L41.5,95.339a8.358,8.358,0,0,0-3.341,10.611L47,127.566c1.572,3.537,5.109,5.9,8.843,5.306a12.382,12.382,0,0,0,5.9-1.965,17.963,17.963,0,0,0,4.716-3.93,8.55,8.55,0,0,0,0-10.415L52.5,97.7a8.2,8.2,0,0,0-10.808-2.555Z" transform="translate(-32.137 -88.744)"/>
        </g>
        <g id="Grupo_89" data-name="Grupo 89" transform="translate(67.816 139.686)">
          <path id="Caminho_129" data-name="Caminho 129" d="M148.654,213.531H72.016L53.937,181.3a11.068,11.068,0,0,1,4.323-15.328l46.376-25.939a11.068,11.068,0,0,1,15.328,4.323l31.048,55.219A11.067,11.067,0,0,1,148.654,213.531Z" transform="translate(-49.786 -135.69)" fill="#fe9b23"/>
          <path id="Caminho_130" data-name="Caminho 130" d="M149.955,217.68H73.317a3,3,0,0,1-2.358-1.376L52.88,184.077A13.427,13.427,0,0,1,51.7,173.466a14.219,14.219,0,0,1,6.681-8.45l46.376-26.136A13.428,13.428,0,0,1,115.37,137.7a14.219,14.219,0,0,1,8.45,6.681L154.868,199.6a14.082,14.082,0,0,1-2.948,17.293A3.492,3.492,0,0,1,149.955,217.68Zm-75.263-5.306h74.083a8.926,8.926,0,0,0,1.179-10.022l-31.048-55.219a8.836,8.836,0,0,0-5.109-4.127,8.327,8.327,0,0,0-6.485.786L60.741,169.732a8.836,8.836,0,0,0-4.127,5.109,8.327,8.327,0,0,0,.786,6.485Z" transform="translate(-51.088 -137.088)"/>
        </g>
      </g>
    </g>
    <g id="Grupo_102" data-name="Grupo 102" transform="translate(74.884 23.741)">
      <g id="Grupo_101" data-name="Grupo 101" transform="translate(0)">
        <g id="Grupo_94" data-name="Grupo 94" transform="translate(107.234 43.515)">
          <g id="Grupo_92" data-name="Grupo 92" transform="translate(19.025 172.141)">
            <path id="Caminho_131" data-name="Caminho 131" d="M127.824,127.1A15.347,15.347,0,0,0,112.5,142.428l-.2,107.293a15.328,15.328,0,0,0,30.655,0l.2-107.293A15.475,15.475,0,0,0,127.824,127.1Z" transform="translate(-108.763 -123.563)"/>
            <path id="Caminho_132" data-name="Caminho 132" d="M129.365,270.323h0A18.87,18.87,0,0,1,110.5,251.458l.2-107.293A18.786,18.786,0,0,1,129.561,125.3h0a18.786,18.786,0,0,1,18.865,18.865l-.2,107.293A18.87,18.87,0,0,1,129.365,270.323Zm.2-137.949a11.583,11.583,0,0,0-8.253,3.341,11.767,11.767,0,0,0-3.537,8.253l-.2,107.293a11.583,11.583,0,0,0,3.341,8.253,11.767,11.767,0,0,0,8.253,3.537h0a11.825,11.825,0,0,0,11.79-11.79l.2-107.293a11.583,11.583,0,0,0-3.341-8.253,12.474,12.474,0,0,0-8.253-3.341Z" transform="translate(-110.5 -125.3)"/>
          </g>
          <g id="Grupo_93" data-name="Grupo 93">
            <path id="Caminho_133" data-name="Caminho 133" d="M172.972,123.332V121.76l-.2-1.376c-.786-7.074-1.769-14.149-2.751-20.633-.786-6.485-1.769-12.773-2.555-18.472-1.572-11.4-3.144-21.026-4.127-27.511-.393-3.341-.983-5.9-1.179-7.664s-.393-2.751-.393-2.751a4.831,4.831,0,0,0-4.52-3.93,4.615,4.615,0,0,0-4.716,4.52v2.751c0,1.769-.2,4.52-.2,7.86,0,6.681-.393,16.31-.393,27.9v41.66l-.2,1.769c-.2,1.376-.59,2.555-.786,3.734a15.9,15.9,0,0,1-3.144,5.7,11.278,11.278,0,0,1-4.52,2.948,15.291,15.291,0,0,1-5.5.983c-4.127,0-7.271-1.179-9.629-3.93a18.384,18.384,0,0,1-3.144-5.5,23.757,23.757,0,0,1-.983-3.537c0-.59-.2-1.376-.2-1.965V122.35h0v-.393c0-14.345,0-27.9-.2-39.5,0-11.594,0-21.223-.2-27.9V43.943a4.837,4.837,0,0,0-9.629-.59s-.59,3.734-1.572,10.415-2.358,16.114-3.93,27.708c-1.572,11.4-3.537,24.76-5.5,39.105-1.376,8.057-.983,19.454,5.306,28.887a35.256,35.256,0,0,0,12.97,11.594c.59.2.983.59,1.572.786a11.05,11.05,0,0,1,6.485,10.415V225.32a8.607,8.607,0,0,0,7.664,8.843,8.474,8.474,0,0,0,9.236-8.45v-53.45a11.767,11.767,0,0,1,6.681-10.415,11.668,11.668,0,0,0,1.572-.786,35.153,35.153,0,0,0,12.773-11.79,37.42,37.42,0,0,0,5.5-14.935,30.665,30.665,0,0,0,.393-7.271A11.877,11.877,0,0,0,172.972,123.332Z" transform="translate(-99.515 -36.279)" fill="#fff"/>
            <path id="Caminho_134" data-name="Caminho 134" d="M138.708,237.941h-.983a11.323,11.323,0,0,1-10.022-11.4V173.487a8.829,8.829,0,0,0-4.913-8.057,11.667,11.667,0,0,1-1.572-.786,38.918,38.918,0,0,1-13.952-12.577c-7.664-11.4-6.878-24.17-5.7-30.852l5.5-38.909c1.572-11.4,2.948-21.026,3.93-27.708l1.572-10.415a7.2,7.2,0,0,1,2.948-4.913,6.921,6.921,0,0,1,5.5-1.376,7.551,7.551,0,0,1,6.485,7.271V55.779c0,6.878.2,16.507.2,27.9l.2,39.695v.2h0v1.376c0,.59.2,1.179.2,1.572v.393a14.72,14.72,0,0,0,.786,3.144,18.091,18.091,0,0,0,2.555,4.716c1.769,2.162,3.93,2.948,7.271,2.948h.2a13.21,13.21,0,0,0,4.716-.786,9.808,9.808,0,0,0,3.341-2.162,10.875,10.875,0,0,0,2.555-4.716,16.64,16.64,0,0,0,.786-3.341l.2-1.769v-2.162c0-6.681-.2-13.363,0-20.83V83.29c0-7.664.2-14.542.2-20.044,0-2.948.2-5.5.2-7.86a57.234,57.234,0,0,1,.2-6.092l.2-4.52a7.522,7.522,0,0,1,7.467-7.074,7,7,0,0,1,6.878,6.092l.786,4.52c.2,1.572.59,3.734.983,6.092s.786,4.913,1.179,7.86c.786,5.5,1.769,12.38,2.948,19.847.786,5.7,1.572,11.987,2.555,18.472.983,7.467,1.769,14.149,2.751,20.633l.2,1.965v.983a25.055,25.055,0,0,1,.2,3.734,51,51,0,0,1-.59,7.86,43.048,43.048,0,0,1-5.9,15.917,37.317,37.317,0,0,1-13.756,12.773,6.981,6.981,0,0,1-1.769.786,9.008,9.008,0,0,0-5.306,7.86v53.45a11.19,11.19,0,0,1-3.734,8.253A9.664,9.664,0,0,1,138.708,237.941ZM119.843,43.006a3.643,3.643,0,0,0-1.376.393,1.989,1.989,0,0,0-.786,1.376L116.11,55.189c-.983,6.681-2.358,16.114-3.93,27.511l-5.5,39.105c-.786,4.716-1.965,16.9,4.913,27.118a33.341,33.341,0,0,0,11.987,10.808,4.925,4.925,0,0,1,1.376.786,14.127,14.127,0,0,1,8.057,12.773v53.057a6.008,6.008,0,0,0,5.306,6.092,5.392,5.392,0,0,0,4.52-1.572,6.311,6.311,0,0,0,1.965-4.323v-53.45a13.977,13.977,0,0,1,8.253-12.773,5.883,5.883,0,0,0,1.572-.786,31.1,31.1,0,0,0,11.79-10.808,37.519,37.519,0,0,0,5.109-13.756,39.26,39.26,0,0,0,.393-6.878,20.208,20.208,0,0,0-.2-3.341h0v-.786l-.2-2.162c-.786-6.485-1.572-13.166-2.751-20.633-.786-6.485-1.769-12.773-2.555-18.472-.983-7.467-1.965-14.345-2.948-19.847-.393-2.948-.786-5.5-1.179-7.86s-.59-4.323-.983-5.9l-.786-4.52a1.914,1.914,0,0,0-1.965-1.572,1.857,1.857,0,0,0-1.965,1.965l-.2,4.52c0,1.572-.2,3.537-.2,5.9s0,4.913-.2,7.86c-.2,5.5-.2,12.38-.2,20.044v42.053l-.2,1.965a21.235,21.235,0,0,1-.983,4.127,18.441,18.441,0,0,1-3.734,6.681,13.324,13.324,0,0,1-5.5,3.537,17.928,17.928,0,0,1-6.485.983c-5.109,0-8.843-1.572-11.79-4.913a22.34,22.34,0,0,1-3.537-6.288,21.235,21.235,0,0,1-.983-4.127v-.393c0-.59-.2-1.179-.2-1.769v-1.572h0v-.786l-.2-39.5c0-11.4,0-21.026-.2-27.9V44.774a2.288,2.288,0,0,0-1.965-2.162C120.04,43.006,119.843,43.006,119.843,43.006Z" transform="translate(-100.818 -37.7)"/>
          </g>
          <path id="Caminho_135" data-name="Caminho 135" d="M155.248,123.209v-1.572l-.2-1.376c-.786-7.074-1.769-14.149-2.751-20.633-.786-6.485-1.769-12.773-2.555-18.472-1.572-11.4-3.144-21.026-4.127-27.511-.393-3.341-.983-5.9-1.179-7.664s-.393-2.751-.393-2.751a4.806,4.806,0,0,0-4.52-3.93l-.786.786c.2,31.638,15.721,57.773,6.485,98.647a12.964,12.964,0,0,1-2.358,5.306c-8.253,12.183-17.882,12.97-19.651,22.991a448.719,448.719,0,0,0-2.358,66.813,8.488,8.488,0,0,0,7.271-8.45v-53.45a11.767,11.767,0,0,1,6.681-10.415,11.668,11.668,0,0,0,1.572-.786,35.153,35.153,0,0,0,12.773-11.79,37.42,37.42,0,0,0,5.5-14.935,30.664,30.664,0,0,0,.393-7.271A7.217,7.217,0,0,0,155.248,123.209Z" transform="translate(-81.79 -36.156)" fill="#fe9b23"/>
        </g>
        <g id="Grupo_100" data-name="Grupo 100">
          <g id="Grupo_95" data-name="Grupo 95" transform="translate(0 0.085)">
            <path id="Caminho_136" data-name="Caminho 136" d="M71.863,18.6a6.692,6.692,0,0,0-9.039,1.179,5.931,5.931,0,0,0-.393,6.681,6.33,6.33,0,0,0-6.485,2.162,5.885,5.885,0,0,0-.2,6.878c-2.555-.59-5.109,0-6.485,1.965-2.162,2.751-1.179,6.878,2.162,9.432,9.629,6.681,21.419,4.52,26.136-3.537C82.081,34.913,79.33,24.5,71.863,18.6Z" transform="translate(-44.447 -13.885)" fill="#fff"/>
            <path id="Caminho_137" data-name="Caminho 137" d="M65.214,56.081a25.17,25.17,0,0,1-14.149-4.52A11.893,11.893,0,0,1,46.35,43.9a9.387,9.387,0,0,1,1.769-6.878,8.27,8.27,0,0,1,4.913-3.144A9.124,9.124,0,0,1,55,28.177a9.612,9.612,0,0,1,4.913-3.341,9.39,9.39,0,0,1,1.965-5.5,10.32,10.32,0,0,1,13.756-1.965.192.192,0,0,1,.2.2c9.236,7.074,11.987,19.651,6.485,29.28a18.676,18.676,0,0,1-12.38,8.843A38.161,38.161,0,0,1,65.214,56.081ZM55.782,40.361a2.279,2.279,0,0,0-1.965.786,2.642,2.642,0,0,0-.393,1.572,5.214,5.214,0,0,0,1.769,2.948,16.961,16.961,0,0,0,13.166,2.948,12.688,12.688,0,0,0,7.86-5.5c3.734-6.485,1.769-15.131-4.52-20.044a3.025,3.025,0,0,0-4.127.393,3.062,3.062,0,0,0-.2,2.948,3.263,3.263,0,0,1-.393,3.734,3.49,3.49,0,0,1-3.537,1.376A3.289,3.289,0,0,0,60.5,32.3a2.672,2.672,0,0,0,0,2.948,4.014,4.014,0,0,1-.2,3.93,3.49,3.49,0,0,1-3.537,1.376A2.137,2.137,0,0,0,55.782,40.361Z" transform="translate(-46.249 -15.599)"/>
          </g>
          <g id="Grupo_96" data-name="Grupo 96" transform="translate(253.92)">
            <path id="Caminho_138" data-name="Caminho 138" d="M205.748,47c3.341-2.555,4.323-6.681,2.162-9.432a6.227,6.227,0,0,0-6.485-1.965,6.645,6.645,0,0,0-.2-6.878,6.589,6.589,0,0,0-6.485-2.162,6.309,6.309,0,0,0-.393-6.681,6.692,6.692,0,0,0-9.039-1.179c-7.664,5.9-10.415,16.507-5.5,24.563C184.328,51.52,196.119,53.682,205.748,47Z" transform="translate(-173.648 -13.704)" fill="#fff"/>
            <path id="Caminho_139" data-name="Caminho 139" d="M195.381,56.32a19.38,19.38,0,0,1-4.716-.59,19.143,19.143,0,0,1-12.38-8.843c-5.5-9.629-2.751-22.205,6.485-29.28a.192.192,0,0,0,.2-.2,10.12,10.12,0,0,1,13.756,1.965,9.39,9.39,0,0,1,1.965,5.5,9.612,9.612,0,0,1,4.913,3.341,9.51,9.51,0,0,1,1.965,5.7,9.3,9.3,0,0,1,4.913,3.144,8.584,8.584,0,0,1,1.769,6.878,11.614,11.614,0,0,1-4.52,7.664h-.2A23.978,23.978,0,0,1,195.381,56.32ZM189.093,23.5c-6.288,4.913-8.253,13.559-4.52,20.044a11.778,11.778,0,0,0,7.664,5.5A16.354,16.354,0,0,0,205.4,46.1a4.658,4.658,0,0,0,1.769-2.948,2.643,2.643,0,0,0-.393-1.572,2.829,2.829,0,0,0-2.948-.786,3.175,3.175,0,0,1-3.537-1.376,3.562,3.562,0,0,1-.2-3.93,2.672,2.672,0,0,0,0-2.948,2.828,2.828,0,0,0-2.948-.786,3.49,3.49,0,0,1-3.537-1.376,3.262,3.262,0,0,1-.2-3.734,2.667,2.667,0,0,0-.2-2.948A3.236,3.236,0,0,0,189.093,23.5Z" transform="translate(-175.465 -15.556)"/>
          </g>
          <g id="Grupo_98" data-name="Grupo 98" transform="translate(19.824 9.679)">
            <g id="Grupo_97" data-name="Grupo 97">
              <path id="Caminho_140" data-name="Caminho 140" d="M279.672,78.225A248.62,248.62,0,0,1,81,77.242C60.762,68.2,52.705,47.373,61.548,34.6h0c8.843-12.773,27.315-15.524,42.249-9.039a192.586,192.586,0,0,0,153.669.786c15.131-6.288,33.406-3.537,42.249,9.432h0C308.362,48.749,300.109,69.382,279.672,78.225Z" transform="translate(-54.743 -18.843)" fill="#fff"/>
              <path id="Caminho_141" data-name="Caminho 141" d="M183.209,103.641A250.381,250.381,0,0,1,81.417,82.221C69.431,76.916,60.391,67.287,57.444,56.282c-2.162-8.057-1.179-15.721,3.144-21.812C70.02,20.911,89.671,16.588,107.16,24.252a188.764,188.764,0,0,0,150.721.786c17.686-7.467,37.14-2.948,46.572,10.611,4.127,6.092,5.109,13.756,2.948,21.812-3.144,11-12.183,20.633-24.367,25.743A256.313,256.313,0,0,1,183.209,103.641ZM89.278,27.4C79.845,27.4,71,31.326,66.09,38.2c-2.948,4.323-3.734,9.825-2.162,15.721,2.555,9.039,10.022,17.1,20.044,21.419a245.261,245.261,0,0,0,195.918.983h0C289.912,72,297.576,64.143,300.131,55.1c1.769-5.9.983-11.594-1.965-15.917-7.271-10.808-23.581-14.345-37.926-8.253a195.948,195.948,0,0,1-156.42-.786A41.479,41.479,0,0,0,89.278,27.4Z" transform="translate(-56.337 -20.481)"/>
            </g>
          </g>
          <g id="Grupo_99" data-name="Grupo 99" transform="translate(80.731 22.387)">
            <path id="Caminho_142" data-name="Caminho 142" d="M94.541,63.8h-.786a9.06,9.06,0,0,1-5.5-4.127,6.37,6.37,0,0,1-.59-5.306l7.664-25.546a2.673,2.673,0,1,1,5.109,1.572L92.772,55.936a1.206,1.206,0,0,0,.2,1.179,3.042,3.042,0,0,0,2.162,1.572A2.646,2.646,0,0,1,96.9,62.028,2.359,2.359,0,0,1,94.541,63.8Z" transform="translate(-87.331 -26.949)"/>
            <path id="Caminho_143" data-name="Caminho 143" d="M109.387,66.756h-.393a9.415,9.415,0,0,1-5.9-3.341,7.021,7.021,0,0,1-1.376-5.109l4.323-26.332a2.585,2.585,0,1,1,5.109.786l-4.323,26.332a2.107,2.107,0,0,0,.393,1.179,4.716,4.716,0,0,0,2.358,1.376,2.786,2.786,0,0,1,2.358,2.948A2.72,2.72,0,0,1,109.387,66.756Z" transform="translate(-73.488 -24.209)"/>
            <path id="Caminho_144" data-name="Caminho 144" d="M124.353,67.647h0a8.741,8.741,0,0,1-6.288-2.555A6.822,6.822,0,0,1,116.1,60.18l.786-26.725a2.781,2.781,0,0,1,2.751-2.555,2.648,2.648,0,0,1,2.555,2.751l-.786,26.725a2.793,2.793,0,0,0,.393,1.179,3.736,3.736,0,0,0,2.555.983,2.648,2.648,0,0,1,2.555,2.751A2.573,2.573,0,0,1,124.353,67.647Z" transform="translate(-59.567 -23.135)"/>
            <path id="Caminho_145" data-name="Caminho 145" d="M139.822,66.471a9.192,9.192,0,0,1-5.5-1.769,6.712,6.712,0,0,1-2.555-4.716l-2.555-26.529a2.669,2.669,0,1,1,5.306-.59L137.071,59.4a1.671,1.671,0,0,0,.59.983,2.834,2.834,0,0,0,2.555.59,2.669,2.669,0,1,1,.59,5.306A1.473,1.473,0,0,1,139.822,66.471Z" transform="translate(-46.935 -23.532)"/>
            <path id="Caminho_146" data-name="Caminho 146" d="M155.4,63.225a9.128,9.128,0,0,1-4.52-1.179,6.993,6.993,0,0,1-3.144-4.323l-5.9-26.136a2.622,2.622,0,0,1,5.109-1.179l6.092,25.939a1.962,1.962,0,0,0,.786.983,3.323,3.323,0,0,0,2.751.2,2.622,2.622,0,1,1,1.179,5.109A4.668,4.668,0,0,1,155.4,63.225Z" transform="translate(-34.808 -25.591)"/>
          </g>
        </g>
      </g>
    </g>
    <g id="Grupo_105" data-name="Grupo 105" transform="translate(72.676 31.491)">
      <g id="Grupo_103" data-name="Grupo 103" transform="translate(160.547)">
        <path id="Caminho_147" data-name="Caminho 147" d="M158.5,75.3c-5.7,0-5.7,8.843,0,8.843S164.2,75.3,158.5,75.3Z" transform="translate(-100.382 34.351)" fill="#fff"/>
        <path id="Caminho_148" data-name="Caminho 148" d="M163,96c-5.7,0-5.7,8.843,0,8.843S168.7,96,163,96Z" transform="translate(-96.039 54.328)" fill="#fff"/>
        <path id="Caminho_149" data-name="Caminho 149" d="M142.8,110.4c-5.7,0-5.7,8.843,0,8.843S148.5,110.4,142.8,110.4Z" transform="translate(-115.534 68.226)" fill="#fff"/>
        <path id="Caminho_150" data-name="Caminho 150" d="M182.4,76.2c-5.7,0-5.7,8.843,0,8.843S188.1,76.2,182.4,76.2Z" transform="translate(-77.317 35.22)" fill="#fff"/>
        <path id="Caminho_151" data-name="Caminho 151" d="M174.3,59.1c-5.7,0-5.7,8.843,0,8.843S180,59.1,174.3,59.1Z" transform="translate(-85.134 18.717)" fill="#fff"/>
        <path id="Caminho_152" data-name="Caminho 152" d="M196.3,64.5c-5.7,0-5.7,8.843,0,8.843S202,64.5,196.3,64.5Z" transform="translate(-63.902 23.929)" fill="#fff"/>
        <path id="Caminho_153" data-name="Caminho 153" d="M140.5,133.8c-5.7,0-5.7,8.843,0,8.843S146.2,133.8,140.5,133.8Z" transform="translate(-117.753 90.808)" fill="#fff"/>
        <path id="Caminho_154" data-name="Caminho 154" d="M131.1,19.5c-5.7,0-5.7,8.843,0,8.843S136.8,19.5,131.1,19.5Z" transform="translate(-126.825 -19.5)" fill="#fff"/>
      </g>
      <g id="Grupo_104" data-name="Grupo 104" transform="translate(0)">
        <path id="Caminho_155" data-name="Caminho 155" d="M87.2,75.3c5.7,0,5.7,8.843,0,8.843S81.5,75.3,87.2,75.3Z" transform="translate(-8.645 34.351)" fill="#fff"/>
        <path id="Caminho_156" data-name="Caminho 156" d="M82.7,96c5.7,0,5.7,8.843,0,8.843S77,96,82.7,96Z" transform="translate(-12.988 54.328)" fill="#fff"/>
        <path id="Caminho_157" data-name="Caminho 157" d="M102.9,110.4c5.7,0,5.7,8.843,0,8.843S97.2,110.4,102.9,110.4Z" transform="translate(6.507 68.226)" fill="#fff"/>
        <path id="Caminho_158" data-name="Caminho 158" d="M63.3,76.2c5.7,0,5.7,8.843,0,8.843S57.6,76.2,63.3,76.2Z" transform="translate(-31.71 35.22)" fill="#fff"/>
        <path id="Caminho_159" data-name="Caminho 159" d="M71.4,59.1c5.7,0,5.7,8.843,0,8.843S65.7,59.1,71.4,59.1Z" transform="translate(-23.893 18.717)" fill="#fff"/>
        <path id="Caminho_160" data-name="Caminho 160" d="M49.4,64.5c5.7,0,5.7,8.843,0,8.843S43.7,64.5,49.4,64.5Z" transform="translate(-45.125 23.929)" fill="#fff"/>
        <path id="Caminho_161" data-name="Caminho 161" d="M105.2,133.8c5.7,0,5.7,8.843,0,8.843S99.5,133.8,105.2,133.8Z" transform="translate(8.726 90.808)" fill="#fff"/>
        <path id="Caminho_162" data-name="Caminho 162" d="M114.6,19.5c5.7,0,5.7,8.843,0,8.843S108.9,19.5,114.6,19.5Z" transform="translate(17.798 -19.5)" fill="#fff"/>
      </g>
    </g>
    <g id="Grupo_107" data-name="Grupo 107" transform="translate(97.963 40.923)">
      <g id="Grupo_106" data-name="Grupo 106">
        <path id="Caminho_163" data-name="Caminho 163" d="M299.711,33.732h0a27.546,27.546,0,0,0-11.2-9.432C286.349,37.663,282.222,49.06,272,59.475a63.426,63.426,0,0,1-9.629,8.057,14.331,14.331,0,0,1-2.162,1.769c-.59.2-.983.393-1.572.59l-2.948,1.769c-14.149,7.664-28.494,9.432-44.411,11-14.542,1.376-29.083.59-43.625.393-28.3-.59-55.612-2.751-81.354-15.917a95.342,95.342,0,0,1-28.3-23.384C57.614,55.348,65.867,68.514,81,75.2a248.62,248.62,0,0,0,198.669.983C300.1,67.335,308.358,46.7,299.711,33.732Z" transform="translate(-57.993 -24.3)" fill="#fe9b23"/>
      </g>
    </g>
    <g id="Grupo_113" data-name="Grupo 113" transform="translate(30.328 333.327)">
      <g id="Grupo_108" data-name="Grupo 108">
        <path id="Caminho_164" data-name="Caminho 164" d="M404.653,272.668H25l19.258-48.734L25,175.2H404.653L385.4,223.934Z" transform="translate(-22.2 -171.073)" fill="#fff"/>
        <path id="Caminho_165" data-name="Caminho 165" d="M406.028,278.821H26.375c-.983,0-1.769-.786-2.358-2.162a7.36,7.36,0,0,1,0-4.127l18.472-46.572L24.017,179.388a5.03,5.03,0,0,1,0-4.127,2.654,2.654,0,0,1,2.358-2.162H406.028c.983,0,1.769.786,2.358,2.162a7.36,7.36,0,0,1,0,4.127l-18.472,46.572,18.472,46.572a5.03,5.03,0,0,1,0,4.127C407.8,278.035,407.011,278.821,406.028,278.821ZM31.091,270.764H401.312l-16.9-42.642a5.505,5.505,0,0,1,0-4.323l16.9-42.642H31.091L47.991,224a5.5,5.5,0,0,1,0,4.323Z" transform="translate(-23.575 -173.1)"/>
      </g>
      <g id="Grupo_111" data-name="Grupo 111" transform="translate(54.601 19.847)">
        <g id="Grupo_109" data-name="Grupo 109" transform="translate(27.195)">
          <path id="Caminho_166" data-name="Caminho 166" d="M75.811,190.588H67.165a4.482,4.482,0,0,0,1.179,2.358,3.949,3.949,0,0,0,2.555.786,3.91,3.91,0,0,0,3.144-1.376l.983,1.179a6.119,6.119,0,0,1-1.769,1.376,9.864,9.864,0,0,1-2.358.393,4.736,4.736,0,0,1-2.948-.786,6.245,6.245,0,0,1-1.965-1.965A6.4,6.4,0,0,1,65.2,189.8a4.512,4.512,0,0,1,.786-2.751,4.736,4.736,0,0,1,1.965-1.965A6.4,6.4,0,0,1,70.7,184.3a4.512,4.512,0,0,1,2.751.786,6.245,6.245,0,0,1,1.965,1.965,4.7,4.7,0,0,1,.59,2.948C75.811,190,75.811,190.2,75.811,190.588Zm-7.467-3.734a4.684,4.684,0,0,0-1.179,2.162h6.878a3,3,0,0,0-1.179-2.162,3.132,3.132,0,0,0-2.358-.786A2.684,2.684,0,0,0,68.344,186.855Z" transform="translate(-65.2 -182.138)"/>
          <path id="Caminho_167" data-name="Caminho 167" d="M85.536,185.507a4.8,4.8,0,0,1,1.179,3.537v6.092H84.75v-5.9a3.132,3.132,0,0,0-.786-2.358A2.684,2.684,0,0,0,81.8,186.1a3.37,3.37,0,0,0-3.537,3.537v5.5H76.3V184.525h1.769V186.1a3.056,3.056,0,0,1,1.572-1.179A7.328,7.328,0,0,1,82,184.525,3.876,3.876,0,0,1,85.536,185.507Z" transform="translate(-54.488 -181.97)"/>
          <path id="Caminho_168" data-name="Caminho 168" d="M90.251,194.518a4.736,4.736,0,0,1-1.965-1.965A6.4,6.4,0,0,1,87.5,189.8a4.512,4.512,0,0,1,.786-2.751,6.245,6.245,0,0,1,1.965-1.965A6.51,6.51,0,0,1,93.2,184.3a5.44,5.44,0,0,1,2.555.59,3.856,3.856,0,0,1,1.769,1.769l-1.376.983a3.336,3.336,0,0,0-1.179-1.179,4.624,4.624,0,0,0-1.572-.393,5.814,5.814,0,0,0-1.965.393,4.591,4.591,0,0,0-1.376,1.376,3.232,3.232,0,0,0-.393,1.965,5.814,5.814,0,0,0,.393,1.965,4.59,4.59,0,0,0,1.376,1.376,3.232,3.232,0,0,0,1.965.393,3.7,3.7,0,0,0,1.572-.393,1.772,1.772,0,0,0,1.179-1.179l1.376.983a3.856,3.856,0,0,1-1.769,1.769,5.439,5.439,0,0,1-2.555.59A4.736,4.736,0,0,1,90.251,194.518Z" transform="translate(-43.679 -182.138)"/>
          <path id="Caminho_169" data-name="Caminho 169" d="M100.451,194.518a4.736,4.736,0,0,1-1.965-1.965A6.4,6.4,0,0,1,97.7,189.8a4.512,4.512,0,0,1,.786-2.751,9.316,9.316,0,0,1,1.965-1.965,4.736,4.736,0,0,1,2.948-.786,4.512,4.512,0,0,1,2.751.786,4.736,4.736,0,0,1,1.965,1.965,6.4,6.4,0,0,1,.786,2.751,4.512,4.512,0,0,1-.786,2.751,9.316,9.316,0,0,1-1.965,1.965,6.4,6.4,0,0,1-2.751.786A4.736,4.736,0,0,1,100.451,194.518Zm4.716-1.376a4.59,4.59,0,0,0,1.376-1.376,3.232,3.232,0,0,0,.393-1.965,5.814,5.814,0,0,0-.393-1.965,4.591,4.591,0,0,0-1.376-1.376,2.92,2.92,0,0,0-1.769-.393,4.693,4.693,0,0,0-1.769.393,4.54,4.54,0,0,0-1.376,1.376,3.232,3.232,0,0,0-.393,1.965,5.813,5.813,0,0,0,.393,1.965,4.591,4.591,0,0,0,1.376,1.376,4.176,4.176,0,0,0,3.537,0Z" transform="translate(-33.835 -182.138)"/>
          <path id="Caminho_170" data-name="Caminho 170" d="M118.336,185.507a4.8,4.8,0,0,1,1.179,3.537v6.092H117.55v-5.9a3.132,3.132,0,0,0-.786-2.358,2.684,2.684,0,0,0-2.162-.786,3.37,3.37,0,0,0-3.537,3.537v5.5H109.1V184.525h1.769V186.1a3.056,3.056,0,0,1,1.572-1.179,7.328,7.328,0,0,1,2.358-.393A4.064,4.064,0,0,1,118.336,185.507Z" transform="translate(-22.833 -181.97)"/>
          <path id="Caminho_171" data-name="Caminho 171" d="M127.564,195.58a4.3,4.3,0,0,1-.983.59,2.914,2.914,0,0,1-1.376.2,3.624,3.624,0,0,1-2.555-.786,3.4,3.4,0,0,1-.983-2.555v-5.9H119.9v-1.572h1.769V183.2h1.965v2.358h3.144v1.572h-3.144v5.7a2.84,2.84,0,0,0,.393,1.376c.2.393.786.393,1.179.393a2.231,2.231,0,0,0,1.572-.59Z" transform="translate(-12.41 -183.2)"/>
          <path id="Caminho_172" data-name="Caminho 172" d="M132.837,184.793a4.255,4.255,0,0,1,2.358-.393v1.965H134.8a3.736,3.736,0,0,0-2.555.983,3.887,3.887,0,0,0-.983,2.751V195.4H129.3V184.793h1.769v1.769A7.35,7.35,0,0,1,132.837,184.793Z" transform="translate(-3.338 -182.042)"/>
          <path id="Caminho_173" data-name="Caminho 173" d="M148.111,190.588h-8.646a4.482,4.482,0,0,0,1.179,2.358,3.949,3.949,0,0,0,2.555.786,3.91,3.91,0,0,0,3.144-1.376l.983,1.179a6.119,6.119,0,0,1-1.769,1.376,9.864,9.864,0,0,1-2.358.393,4.736,4.736,0,0,1-2.948-.786,6.245,6.245,0,0,1-1.965-1.965,6.4,6.4,0,0,1-.786-2.751,4.512,4.512,0,0,1,.786-2.751,4.736,4.736,0,0,1,1.965-1.965A6.4,6.4,0,0,1,143,184.3a4.512,4.512,0,0,1,2.751.786,6.246,6.246,0,0,1,1.965,1.965,4.7,4.7,0,0,1,.59,2.948C148.111,190,148.111,190.2,148.111,190.588Zm-7.467-3.734a4.684,4.684,0,0,0-1.179,2.162h6.878a3,3,0,0,0-1.179-2.162,3.132,3.132,0,0,0-2.358-.786A2.684,2.684,0,0,0,140.644,186.855Z" transform="translate(4.575 -182.138)"/>
          <path id="Caminho_174" data-name="Caminho 174" d="M166.022,184.5v10.611h-1.769v-1.572a3.056,3.056,0,0,1-1.572,1.179,3.887,3.887,0,0,1-2.162.393,4.622,4.622,0,0,1-3.341-1.179A4.8,4.8,0,0,1,156,190.392V184.3h1.965v5.9a3.132,3.132,0,0,0,.786,2.358,2.684,2.684,0,0,0,2.162.786,3.254,3.254,0,0,0,2.358-.983,3.736,3.736,0,0,0,.983-2.555v-5.5h1.769Z" transform="translate(22.429 -182.138)"/>
          <path id="Caminho_175" data-name="Caminho 175" d="M184.007,185.507a4.8,4.8,0,0,1,1.179,3.537v6.092h-1.965v-5.9a3.132,3.132,0,0,0-.786-2.358,2.523,2.523,0,0,0-1.965-.786,3.254,3.254,0,0,0-2.358.983,3.624,3.624,0,0,0-.786,2.555v5.5H175.36v-5.9a3.132,3.132,0,0,0-.786-2.358,2.523,2.523,0,0,0-1.965-.786,3.254,3.254,0,0,0-2.358.983,3.624,3.624,0,0,0-.786,2.555v5.5H167.5V184.525h1.769V186.1a3.056,3.056,0,0,1,1.572-1.179,7.064,7.064,0,0,1,2.162-.393,3.961,3.961,0,0,1,2.162.59,5.3,5.3,0,0,1,1.572,1.376,3.136,3.136,0,0,1,1.769-1.376,10.365,10.365,0,0,1,2.358-.59A3.625,3.625,0,0,1,184.007,185.507Z" transform="translate(33.528 -181.97)"/>
        </g>
        <g id="Grupo_110" data-name="Grupo 110" transform="translate(0 0.196)">
          <path id="Caminho_176" data-name="Caminho 176" d="M62.835,187.427a1.962,1.962,0,0,0-.983-.786l-2.751-.2-.983-2.555a1.114,1.114,0,0,0-1.965,0l-.983,2.555-2.751.2a1.306,1.306,0,0,0-.983.786c-.2.393,0,.786.393,1.179l2.162,1.769-.786,2.751c-.2.393,0,.786.393,1.179a1.253,1.253,0,0,0,1.179,0l2.358-1.572,2.358,1.572a.982.982,0,0,0,1.179,0,.945.945,0,0,0,.393-1.179l-.786-2.751,2.162-1.769C62.835,188.213,63.032,187.82,62.835,187.427Z" transform="translate(-51.361 -183.3)"/>
          <path id="Caminho_177" data-name="Caminho 177" d="M197.235,187.427a1.962,1.962,0,0,0-.983-.786l-2.751-.2-.983-2.555a1.114,1.114,0,0,0-1.965,0l-.983,2.555-2.751.2a1.306,1.306,0,0,0-.983.786c-.2.393,0,.786.393,1.179l2.162,1.769-.786,2.751c-.2.393,0,.786.393,1.179a1.253,1.253,0,0,0,1.179,0l2.358-1.572,2.358,1.572a.982.982,0,0,0,1.179,0,.945.945,0,0,0,.393-1.179l-.786-2.751,2.162-1.769C197.235,188.213,197.432,187.82,197.235,187.427Z" transform="translate(78.346 -183.3)"/>
        </g>
      </g>
      <g id="Grupo_112" data-name="Grupo 112" transform="translate(87.299 48.734)">
        <path id="Caminho_178" data-name="Caminho 178" d="M99.834,220.995a10.579,10.579,0,0,1,1.769,6.092,9.375,9.375,0,0,1-3.734,8.057c-2.555,1.965-6.092,2.751-10.808,2.751H68V198.2H86.079c4.52,0,8.057.983,10.415,2.751a9.244,9.244,0,0,1,3.537,7.664,10.879,10.879,0,0,1-1.179,5.109,7.712,7.712,0,0,1-3.537,3.537A10.319,10.319,0,0,1,99.834,220.995ZM77.629,206.453v7.664h6.878c3.341,0,5.109-1.376,5.109-3.93s-1.769-3.734-5.109-3.734Zm13.756,19.258c0-2.751-1.769-3.93-5.306-3.93h-8.45v8.057h8.45Q91.384,229.838,91.384,225.711Z" transform="translate(-68 -197.611)"/>
        <path id="Caminho_179" data-name="Caminho 179" d="M96.429,236.415a20.887,20.887,0,0,1-7.074-7.271,23.316,23.316,0,0,1,0-21.223,19.6,19.6,0,0,1,27.118-7.271,20.887,20.887,0,0,1,7.074,7.271,23.316,23.316,0,0,1,0,21.223,19.6,19.6,0,0,1-27.118,7.271Zm14.935-8.057a13.7,13.7,0,0,0,3.537-3.93,15.327,15.327,0,0,0,0-11.79,7.733,7.733,0,0,0-3.537-3.93,8.441,8.441,0,0,0-4.913-1.376,8.869,8.869,0,0,0-4.913,1.376A13.7,13.7,0,0,0,98,212.638a15.328,15.328,0,0,0,0,11.79,7.733,7.733,0,0,0,3.537,3.93,8.441,8.441,0,0,0,4.913,1.376A8.869,8.869,0,0,0,111.364,228.359Z" transform="translate(-49.857 -197.9)"/>
        <path id="Caminho_180" data-name="Caminho 180" d="M118.408,207.143H107.6V198.3h31.834v8.843H128.626v30.852H118.6V207.143Z" transform="translate(-29.783 -197.514)"/>
        <path id="Caminho_181" data-name="Caminho 181" d="M154.094,229.248v8.646H125.6V198.2h27.9v8.646H135.622v6.681h15.721v8.45H135.622v7.271h18.472Z" transform="translate(-12.411 -197.611)"/>
        <path id="Caminho_182" data-name="Caminho 182" d="M151.432,236.319a17.535,17.535,0,0,1-6.878-7.271A23.494,23.494,0,0,1,142,218.437a21.207,21.207,0,0,1,2.555-10.611,18.3,18.3,0,0,1,16.9-9.825,18.288,18.288,0,0,1,15.328,7.467l-6.288,6.485c-2.358-3.144-5.109-4.716-8.45-4.716a8.659,8.659,0,0,0-5.109,1.376,9.705,9.705,0,0,0-3.537,3.93,15.327,15.327,0,0,0,0,11.79,7.733,7.733,0,0,0,3.537,3.93,10.992,10.992,0,0,0,5.109,1.376c3.341,0,6.092-1.572,8.45-4.716l6.288,6.485a17.389,17.389,0,0,1-6.485,5.5,20.91,20.91,0,0,1-8.843,1.965A19.036,19.036,0,0,1,151.432,236.319Z" transform="translate(3.416 -197.803)"/>
        <path id="Caminho_183" data-name="Caminho 183" d="M170.229,236.415a20.887,20.887,0,0,1-7.074-7.271,23.316,23.316,0,0,1,0-21.223,19.6,19.6,0,0,1,27.118-7.271,20.887,20.887,0,0,1,7.074,7.271,23.316,23.316,0,0,1,0,21.223,19.6,19.6,0,0,1-27.118,7.271Zm14.935-8.057a13.7,13.7,0,0,0,3.537-3.93,15.328,15.328,0,0,0,0-11.79,7.733,7.733,0,0,0-3.537-3.93,8.441,8.441,0,0,0-4.913-1.376,8.87,8.87,0,0,0-4.913,1.376,13.7,13.7,0,0,0-3.537,3.93,15.327,15.327,0,0,0,0,11.79,7.733,7.733,0,0,0,3.537,3.93,8.441,8.441,0,0,0,4.913,1.376A8.043,8.043,0,0,0,185.163,228.359Z" transform="translate(21.366 -197.9)"/>
      </g>
    </g>
  </g>
</svg>
